{
  "accessors": [
    {
      "bufferView": 2,
      "componentType": 5126,
      "count": 65532,
      "max": [
        0.2519400119781494,
        1.237396001815796,
        0.12423700094223022
      ],
      "min": [
        -0.23288099467754364,
        0.15951600670814514,
        -0.18460699915885925
      ],
      "type": "VEC3"
    },
    {
      "bufferView": 2,
      "byteOffset": 786384,
      "componentType": 5126,
      "count": 65532,
      "max": [
        0.9999961853027344,
        0.9999964237213135,
        0.9999948740005493
      ],
      "min": [
        -0.9999943375587463,
        -0.999991774559021,
        -0.9999959468841553
      ],
      "type": "VEC3"
    },
    {
      "bufferView": 1,
      "componentType": 5126,
      "count": 65532,
      "max": [
        0.9757369756698608,
        0.993923008441925
      ],
      "min": [
        0.046849001199007034,
        0.35810500383377075
      ],
      "type": "VEC2"
    },
    {
      "bufferView": 0,
      "componentType": 5125,
      "count": 347196,
      "type": "SCALAR"
    },
    {
      "bufferView": 2,
      "byteOffset": 1572768,
      "componentType": 5126,
      "count": 65532,
      "max": [
        0.25388601422309875,
        1.252271056175232,
        0.1528719961643219
      ],
      "min": [
        -0.20900699496269226,
        0.00874600000679493,
        -0.22444599866867065
      ],
      "type": "VEC3"
    },
    {
      "bufferView": 2,
      "byteOffset": 2359152,
      "componentType": 5126,
      "count": 65532,
      "max": [
        1.0,
        1.0,
        1.0
      ],
      "min": [
        -1.0,
        -1.0,
        -1.0
      ],
      "type": "VEC3"
    },
    {
      "bufferView": 1,
      "byteOffset": 524256,
      "componentType": 5126,
      "count": 65532,
      "max": [
        0.9757369756698608,
        0.993923008441925
      ],
      "min": [
        0.00825599953532219,
        0.007424999959766865
      ],
      "type": "VEC2"
    },
    {
      "bufferView": 0,
      "byteOffset": 1388784,
      "componentType": 5125,
      "count": 367374,
      "type": "SCALAR"
    },
    {
      "bufferView": 2,
      "byteOffset": 3145536,
      "componentType": 5126,
      "count": 65532,
      "max": [
        0.2532289922237396,
        1.2519489526748657,
        0.15253399312496185
      ],
      "min": [
        -0.20965999364852905,
        0.004220000002533197,
        -0.1903039962053299
      ],
      "type": "VEC3"
    },
    {
      "bufferView": 2,
      "byteOffset": 3931920,
      "componentType": 5126,
      "count": 65532,
      "max": [
        1.0,
        1.0,
        1.0
      ],
      "min": [
        -1.0,
        -0.9994973540306091,
        -1.0
      ],
      "type": "VEC3"
    },
    {
      "bufferView": 1,
      "byteOffset": 1048512,
      "componentType": 5126,
      "count": 65532,
      "max": [
        0.9757369756698608,
        0.894582986831665
      ],
      "min": [
        0.006076999939978123,
        0.006101999897509813
      ],
      "type": "VEC2"
    },
    {
      "bufferView": 0,
      "byteOffset": 2858280,
      "componentType": 5125,
      "count": 355335,
      "type": "SCALAR"
    },
    {
      "bufferView": 2,
      "byteOffset": 4718304,
      "componentType": 5126,
      "count": 34445,
      "max": [
        0.24854500591754913,
        1.2519919872283936,
        0.15303300321102142
      ],
      "min": [
        -0.2092760056257248,
        0.003938000183552504,
        -0.19004400074481964
      ],
      "type": "VEC3"
    },
    {
      "bufferView": 2,
      "byteOffset": 5131644,
      "componentType": 5126,
      "count": 34445,
      "max": [
        1.0,
        1.0,
        1.0
      ],
      "min": [
        -1.0,
        -0.9998995065689087,
        -1.0
      ],
      "type": "VEC3"
    },
    {
      "bufferView": 1,
      "byteOffset": 1572768,
      "componentType": 5126,
      "count": 34445,
      "max": [
        0.9757369756698608,
        0.8288580179214478
      ],
      "min": [
        0.006076999939978123,
        0.006076999939978123
      ],
      "type": "VEC2"
    },
    {
      "bufferView": 0,
      "byteOffset": 4279620,
      "componentType": 5125,
      "count": 149715,
      "type": "SCALAR"
    }
  ],
  "asset": {
    "extras": {
      "author": "RICHIExGOLDBERG (https://sketchfab.com/RICHIExGOLDBERG)",
      "license": "CC-BY-4.0 (http://creativecommons.org/licenses/by/4.0/)",
      "source": "https://sketchfab.com/3d-models/vetements-cargo-jeans-wide-leg-track-pants-a9067eecf6d24e75bdf28345027e7552",
      "title": "VETEMENTS Cargo Jeans / Wide-Leg Track Pants"
    },
    "generator": "Sketchfab-16.15.0",
    "version": "2.0"
  },
  "bufferViews": [
    {
      "buffer": 0,
      "byteLength": 4878480,
      "name": "floatBufferViews",
      "target": 34963
    },
    {
      "buffer": 0,
      "byteLength": 1848328,
      "byteOffset": 4878480,
      "byteStride": 8,
      "name": "floatBufferViews",
      "target": 34962
    },
    {
      "buffer": 0,
      "byteLength": 5544984,
      "byteOffset": 6726808,
      "byteStride": 12,
      "name": "floatBufferViews",
      "target": 34962
    }
  ],
  "buffers": [
    {
      "byteLength": 12271792,
      "uri": "scene.bin"
    }
  ],
  "images": [
    {
      "uri": "textures/VETEMENTS_Cargo_Pants_baseColor.png"
    },
    {
      "uri": "textures/VETEMENTS_Cargo_Pants_metallicRoughness.png"
    }
  ],
  "materials": [
    {
      "doubleSided": true,
      "name": "VETEMENTS_Cargo_Pants",
      "pbrMetallicRoughness": {
        "baseColorTexture": {
          "index": 0
        },
        "metallicRoughnessTexture": {
          "index": 1
        }
      }
    }
  ],
  "meshes": [
    {
      "name": "VETEMENTS_Cargo_Pants_VETEMENTS_Cargo_Pants_0",
      "primitives": [
        {
          "attributes": {
            "NORMAL": 1,
            "POSITION": 0,
            "TEXCOORD_0": 2
          },
          "indices": 3,
          "material": 0,
          "mode": 4
        }
      ]
    },
    {
      "name": "VETEMENTS_Cargo_Pants_VETEMENTS_Cargo_Pants_0",
      "primitives": [
        {
          "attributes": {
            "NORMAL": 5,
            "POSITION": 4,
            "TEXCOORD_0": 6
          },
          "indices": 7,
          "material": 0,
          "mode": 4
        }
      ]
    },
    {
      "name": "VETEMENTS_Cargo_Pants_VETEMENTS_Cargo_Pants_0",
      "primitives": [
        {
          "attributes": {
            "NORMAL": 9,
            "POSITION": 8,
            "TEXCOORD_0": 10
          },
          "indices": 11,
          "material": 0,
          "mode": 4
        }
      ]
    },
    {
      "name": "VETEMENTS_Cargo_Pants_VETEMENTS_Cargo_Pants_0",
      "primitives": [
        {
          "attributes": {
            "NORMAL": 13,
            "POSITION": 12,
            "TEXCOORD_0": 14
          },
          "indices": 15,
          "material": 0,
          "mode": 4
        }
      ]
    }
  ],
  "nodes": [
    {
      "children": [
        1
      ],
      "matrix": [
        1.0,
        0.0,
        0.0,
        0.0,
        0.0,
        2.220446049250313e-16,
        -1.0,
        0.0,
        0.0,
        1.0,
        2.220446049250313e-16,
        0.0,
        0.0,
        0.0,
        0.0,
        1.0
      ],
      "name": "Sketchfab_model"
    },
    {
      "children": [
        2
      ],
      "matrix": [
        0.009999999776482582,
        0.0,
        0.0,
        0.0,
        0.0,
        0.0,
        0.009999999776482582,
        0.0,
        0.0,
        -0.009999999776482582,
        0.0,
        0.0,
        0.0,
        0.0,
        0.0,
        1.0
      ],
      "name": "5214607a63c149f5af449f882fb0f2b5.fbx"
    },
    {
      "children": [
        3
      ],
      "name": "RootNode"
    },
    {
      "children": [
        4,
        5,
        6,
        7
      ],
      "matrix": [
        100.0,
        0.0,
        0.0,
        0.0,
        0.0,
        99.99999999999972,
        -7.5497901264043296e-06,
        0.0,
        0.0,
        7.5497901264043296e-06,
        99.99999999999972,
        0.0,
        0.0,
        0.0,
        0.0,
        1.0
      ],
      "name": "VETEMENTS_Cargo_Pants"
    },
    {
      "mesh": 0,
      "name": "VETEMENTS_Cargo_Pants_VETEMENTS_Cargo_Pants_0"
    },
    {
      "mesh": 1,
      "name": "VETEMENTS_Cargo_Pants_VETEMENTS_Cargo_Pants_0"
    },
    {
      "mesh": 2,
      "name": "VETEMENTS_Cargo_Pants_VETEMENTS_Cargo_Pants_0"
    },
    {
      "mesh": 3,
      "name": "VETEMENTS_Cargo_Pants_VETEMENTS_Cargo_Pants_0"
    }
  ],
  "samplers": [
    {
      "magFilter": 9729,
      "minFilter": 9987,
      "wrapS": 10497,
      "wrapT": 10497
    }
  ],
  "scene": 0,
  "scenes": [
    {
      "name": "Sketchfab_Scene",
      "nodes": [
        0
      ]
    }
  ],
  "textures": [
    {
      "sampler": 0,
      "source": 0
    },
    {
      "sampler": 0,
      "source": 1
    }
  ]
}
