{
  "accessors": [
    {
      "bufferView": 2,
      "componentType": 5126,
      "count": 30272,
      "max": [
        0.2102382481098175,
        0.24768224358558655,
        0.07935426384210587
      ],
      "min": [
        -0.20917949080467224,
        -1.4901160305669237e-08,
        -0.0795813575387001
      ],
      "type": "VEC3"
    },
    {
      "bufferView": 2,
      "byteOffset": 363264,
      "componentType": 5126,
      "count": 30272,
      "max": [
        0.999447226524353,
        0.9998614192008972,
        0.9999701976776123
      ],
      "min": [
        -0.9999576210975647,
        -0.9999715089797974,
        -0.9999803304672241
      ],
      "type": "VEC3"
    },
    {
      "bufferView": 1,
      "componentType": 5126,
      "count": 30272,
      "max": [
        0.9999906420707703,
        0.9999939799308777
      ],
      "min": [
        6.129264511400834e-05,
        0.009085476398468018
      ],
      "type": "VEC2"
    },
    {
      "bufferView": 1,
      "byteOffset": 242176,
      "componentType": 5126,
      "count": 30272,
      "max": [
        0.9999906420707703,
        0.9999939799308777
      ],
      "min": [
        6.129264511400834e-05,
        0.009085476398468018
      ],
      "type": "VEC2"
    },
    {
      "bufferView": 1,
      "byteOffset": 484352,
      "componentType": 5126,
      "count": 30272,
      "max": [
        0.9999906420707703,
        0.9999939799308777
      ],
      "min": [
        6.129264511400834e-05,
        0.009085476398468018
      ],
      "type": "VEC2"
    },
    {
      "bufferView": 1,
      "byteOffset": 726528,
      "componentType": 5126,
      "count": 30272,
      "max": [
        0.9999906420707703,
        0.9999939799308777
      ],
      "min": [
        6.129264511400834e-05,
        0.009085476398468018
      ],
      "type": "VEC2"
    },
    {
      "bufferView": 1,
      "byteOffset": 968704,
      "componentType": 5126,
      "count": 30272,
      "max": [
        0.9999906420707703,
        0.9999939799308777
      ],
      "min": [
        6.129264511400834e-05,
        0.009085476398468018
      ],
      "type": "VEC2"
    },
    {
      "bufferView": 0,
      "componentType": 5125,
      "count": 159330,
      "type": "SCALAR"
    }
  ],
  "asset": {
    "extras": {
      "author": "ShoesPlug (https://sketchfab.com/ShoesPlug)",
      "license": "CC-BY-4.0 (http://creativecommons.org/licenses/by/4.0/)",
      "source": "https://sketchfab.com/3d-models/jordan-4-retro-university-blue-68f32cad08544592aafd56a1ac7c60bc",
      "title": "Jordan 4 Retro University Blue"
    },
    "generator": "Sketchfab-16.16.0",
    "version": "2.0"
  },
  "bufferViews": [
    {
      "buffer": 0,
      "byteLength": 637320,
      "name": "floatBufferViews",
      "target": 34963
    },
    {
      "buffer": 0,
      "byteLength": 1210880,
      "byteOffset": 637320,
      "byteStride": 8,
      "name": "floatBufferViews",
      "target": 34962
    },
    {
      "buffer": 0,
      "byteLength": 726528,
      "byteOffset": 1848200,
      "byteStride": 12,
      "name": "floatBufferViews",
      "target": 34962
    }
  ],
  "buffers": [
    {
      "byteLength": 2574728,
      "uri": "scene.bin"
    }
  ],
  "extensionsUsed": [
    "KHR_materials_unlit"
  ],
  "images": [
    {
      "uri": "textures/material_0_baseColor.jpeg"
    }
  ],
  "materials": [
    {
      "extensions": {
        "KHR_materials_unlit": {}
      },
      "name": "material_0",
      "pbrMetallicRoughness": {
        "baseColorTexture": {
          "index": 0
        },
        "metallicFactor": 0.0
      }
    }
  ],
  "meshes": [
    {
      "name": "Object_0",
      "primitives": [
        {
          "attributes": {
            "NORMAL": 1,
            "POSITION": 0,
            "TEXCOORD_0": 2,
            "TEXCOORD_1": 3,
            "TEXCOORD_2": 4,
            "TEXCOORD_3": 5,
            "TEXCOORD_4": 6
          },
          "indices": 7,
          "material": 0,
          "mode": 4
        }
      ]
    }
  ],
  "nodes": [
    {
      "children": [
        1
      ],
      "matrix": [
        1.0,
        0.0,
        0.0,
        0.0,
        0.0,
        2.220446049250313e-16,
        -1.0,
        0.0,
        0.0,
        1.0,
        2.220446049250313e-16,
        0.0,
        0.0,
        0.0,
        0.0,
        1.0
      ],
      "name": "Sketchfab_model"
    },
    {
      "children": [
        2
      ],
      "name": "root"
    },
    {
      "children": [
        3
      ],
      "matrix": [
        1.0,
        0.0,
        0.0,
        0.0,
        0.0,
        2.220446049250313e-16,
        1.0,
        0.0,
        0.0,
        -1.0,
        2.220446049250313e-16,
        0.0,
        0.0,
        0.0,
        0.0,
        1.0
      ],
      "name": "GLTF_SceneRootNode"
    },
    {
      "children": [
        4
      ],
      "name": "_0"
    },
    {
      "mesh": 0,
      "name": "Object_4"
    }
  ],
  "samplers": [
    {
      "magFilter": 9729,
      "minFilter": 9987,
      "wrapS": 10497,
      "wrapT": 10497
    }
  ],
  "scene": 0,
  "scenes": [
    {
      "name": "Sketchfab_Scene",
      "nodes": [
        0
      ]
    }
  ],
  "textures": [
    {
      "sampler": 0,
      "source": 0
    }
  ]
}
