{
  "accessors": [
    {
      "bufferView": 2,
      "componentType": 5126,
      "count": 19092,
      "max": [
        10.014433860778809,
        6.750263214111328,
        15.759275436401367
      ],
      "min": [
        -9.960718154907227,
        -6.882236957550049,
        -12.601780891418457
      ],
      "type": "VEC3"
    },
    {
      "bufferView": 2,
      "byteOffset": 229104,
      "componentType": 5126,
      "count": 19092,
      "max": [
        1.0,
        1.0,
        1.0
      ],
      "min": [
        -1.0,
        -1.0,
        -1.0
      ],
      "type": "VEC3"
    },
    {
      "bufferView": 3,
      "componentType": 5126,
      "count": 19092,
      "max": [
        1.0,
        1.0,
        1.0,
        1.0
      ],
      "min": [
        -1.0,
        -1.0,
        -1.0,
        -1.0
      ],
      "type": "VEC4"
    },
    {
      "bufferView": 1,
      "componentType": 5126,
      "count": 19092,
      "max": [
        0.9499176144599915,
        0.999181866645813
      ],
      "min": [
        0.0004882813664153218,
        0.0004886056995019317
      ],
      "type": "VEC2"
    },
    {
      "bufferView": 1,
      "byteOffset": 152736,
      "componentType": 5126,
      "count": 19092,
      "max": [
        0.9790769219398499,
        0.9791358709335327
      ],
      "min": [
        -0.02856592833995819,
        -0.029877714812755585
      ],
      "type": "VEC2"
    },
    {
      "bufferView": 1,
      "byteOffset": 305472,
      "componentType": 5126,
      "count": 19092,
      "max": [
        0.99977046251297,
        0.9368370771408081
      ],
      "min": [
        0.0,
        0.0
      ],
      "type": "VEC2"
    },
    {
      "bufferView": 0,
      "componentType": 5125,
      "count": 104310,
      "type": "SCALAR"
    }
  ],
  "asset": {
    "extras": {
      "author": "Can Mustafa (https://sketchfab.com/c42m05)",
      "license": "CC-BY-4.0 (http://creativecommons.org/licenses/by/4.0/)",
      "source": "https://sketchfab.com/3d-models/new-york-yankees-59fifty-fitted-cap-a2cd8106271a48e398962b2662db225c",
      "title": "New York Yankees 59FIFTY Fitted Cap"
    },
    "generator": "Sketchfab-15.77.0",
    "version": "2.0"
  },
  "bufferViews": [
    {
      "buffer": 0,
      "byteLength": 417240,
      "name": "floatBufferViews",
      "target": 34963
    },
    {
      "buffer": 0,
      "byteLength": 458208,
      "byteOffset": 417240,
      "byteStride": 8,
      "name": "floatBufferViews",
      "target": 34962
    },
    {
      "buffer": 0,
      "byteLength": 458208,
      "byteOffset": 875448,
      "byteStride": 12,
      "name": "floatBufferViews",
      "target": 34962
    },
    {
      "buffer": 0,
      "byteLength": 305472,
      "byteOffset": 1333656,
      "byteStride": 16,
      "name": "floatBufferViews",
      "target": 34962
    }
  ],
  "buffers": [
    {
      "byteLength": 1639128,
      "uri": "scene.bin"
    }
  ],
  "images": [
    {
      "uri": "textures/Cap.001_baseColor.png"
    },
    {
      "uri": "textures/Cap.001_metallicRoughness.png"
    },
    {
      "uri": "textures/Cap.001_normal.png"
    }
  ],
  "materials": [
    {
      "doubleSided": true,
      "name": "Cap.001",
      "normalTexture": {
        "index": 2
      },
      "occlusionTexture": {
        "index": 1
      },
      "pbrMetallicRoughness": {
        "baseColorTexture": {
          "index": 0
        },
        "metallicRoughnessTexture": {
          "index": 1
        }
      }
    }
  ],
  "meshes": [
    {
      "name": "Cap_Cap.001_0",
      "primitives": [
        {
          "attributes": {
            "NORMAL": 1,
            "POSITION": 0,
            "TANGENT": 2,
            "TEXCOORD_0": 3,
            "TEXCOORD_1": 4,
            "TEXCOORD_2": 5
          },
          "indices": 6,
          "material": 0,
          "mode": 4
        }
      ]
    }
  ],
  "nodes": [
    {
      "children": [
        1
      ],
      "matrix": [
        1.0,
        0.0,
        0.0,
        0.0,
        0.0,
        2.220446049250313e-16,
        -1.0,
        0.0,
        0.0,
        1.0,
        2.220446049250313e-16,
        0.0,
        0.0,
        0.0,
        0.0,
        1.0
      ],
      "name": "Sketchfab_model"
    },
    {
      "children": [
        2
      ],
      "matrix": [
        0.009999999776482582,
        0.0,
        0.0,
        0.0,
        0.0,
        0.0,
        0.009999999776482582,
        0.0,
        0.0,
        -0.009999999776482582,
        0.0,
        0.0,
        0.0,
        0.0,
        0.0,
        1.0
      ],
      "name": "cap.fbx"
    },
    {
      "children": [
        3
      ],
      "name": "RootNode"
    },
    {
      "children": [
        4
      ],
      "matrix": [
        1.0,
        0.0,
        0.0,
        0.0,
        0.0,
        1.0,
        0.0,
        0.0,
        0.0,
        0.0,
        1.0,
        0.0,
        -0.026857681572437286,
        7.251478672027588,
        -2.376709222793579,
        1.0
      ],
      "name": "Cap"
    },
    {
      "mesh": 0,
      "name": "Cap_Cap.001_0"
    }
  ],
  "samplers": [
    {
      "magFilter": 9729,
      "minFilter": 9987,
      "wrapS": 10497,
      "wrapT": 10497
    }
  ],
  "scene": 0,
  "scenes": [
    {
      "name": "Sketchfab_Scene",
      "nodes": [
        0
      ]
    }
  ],
  "textures": [
    {
      "sampler": 0,
      "source": 0
    },
    {
      "sampler": 0,
      "source": 1
    },
    {
      "sampler": 0,
      "source": 2
    }
  ]
}
